<?xml version="1.0" encoding="UTF-8" standalone="no"?>
<!-- Created with Inkscape (http://www.inkscape.org/) -->

<svg
   width="512"
   height="512"
   viewBox="0 0 135.46666 135.46667"
   version="1.1"
   id="svg1"
   inkscape:version="1.3 (0e150ed, 2023-07-21)"
   sodipodi:docname="Apto-logo-simple.svg"
   inkscape:export-filename="Apto-logo-simple.png"
   inkscape:export-xdpi="96"
   inkscape:export-ydpi="96"
   xmlns:inkscape="http://www.inkscape.org/namespaces/inkscape"
   xmlns:sodipodi="http://sodipodi.sourceforge.net/DTD/sodipodi-0.dtd"
   xmlns="http://www.w3.org/2000/svg"
   xmlns:svg="http://www.w3.org/2000/svg">
  <sodipodi:namedview
     id="namedview1"
     pagecolor="#ffffff"
     bordercolor="#000000"
     borderopacity="0.25"
     inkscape:showpageshadow="2"
     inkscape:pageopacity="0.0"
     inkscape:pagecheckerboard="0"
     inkscape:deskcolor="#d1d1d1"
     inkscape:document-units="mm"
     showgrid="true"
     inkscape:zoom="1.3638837"
     inkscape:cx="208.5955"
     inkscape:cy="231.32471"
     inkscape:window-width="1664"
     inkscape:window-height="832"
     inkscape:window-x="0"
     inkscape:window-y="57"
     inkscape:window-maximized="0"
     inkscape:current-layer="layer1">
    <inkscape:grid
       id="grid1"
       units="px"
       originx="0"
       originy="0"
       spacingx="2.1166666"
       spacingy="2.1166666"
       empcolor="#0099e5"
       empopacity="0.30196078"
       color="#0099e5"
       opacity="0.14901961"
       empspacing="8"
       dotted="false"
       gridanglex="30"
       gridanglez="30"
       visible="true" />
  </sodipodi:namedview>
  <defs
     id="defs1" />
  <g
     inkscape:label="Layer 1"
     inkscape:groupmode="layer"
     id="layer1">
    <rect
       style="fill:#000000;stroke:none;stroke-width:8.46667;stroke-linecap:round;stroke-linejoin:round;fill-opacity:1"
       id="rect1"
       width="135.46666"
       height="135.46666"
       x="0"
       y="0" />
    <text
       xml:space="preserve"
       style="font-size:98.7777px;font-family:'Hiragino Sans';-inkscape-font-specification:'Hiragino Sans, Normal';fill:#000000;fill-opacity:1;stroke:none;stroke-width:8.46667;stroke-linecap:round;stroke-linejoin:round"
       x="33.866665"
       y="75.308212"
       id="text1"><tspan
         sodipodi:role="line"
         id="tspan1"
         style="stroke-width:8.46667"
         x="33.866665"
         y="75.308212" /></text>
    <path
       style="color:#000000;-inkscape-font-specification:'Hiragino Sans, Ultra-Bold';fill:#ffffff;stroke-linecap:round;stroke-linejoin:round;stroke-dasharray:7.38566297, 4.43138386, 10.33989248, 4.43138386;opacity:0.902511;stroke-width:1.000125;stroke-dashoffset:0;fill-opacity:1"
       d="m 80.322266,56.962891 c -0.345016,-0.0051 -0.725235,0.07295 -1.134766,0.201171 -0.819062,0.256449 -1.870802,0.758066 -3.332031,1.595704 a 0.73854887,0.73854887 0 0 0 -0.367188,0.728515 l 0.04297,0.357422 a 0.73847502,0.73847502 0 0 0 0.822266,0.644531 0.73847502,0.73847502 0 0 0 0.617187,-0.632812 c 1.145203,-0.632763 2.105696,-1.110213 2.658203,-1.283203 0.631648,-0.197769 0.790129,-0.08615 0.726563,-0.134766 -0.06357,-0.04862 0.0089,0.006 0,0.339844 -0.0089,0.333819 -0.08593,0.813623 -0.125,1.318359 l -0.03125,0.392578 a 0.73854887,0.73854887 0 0 0 -0.002,0.0059 c -0.02564,0.353485 -0.0471,0.712226 -0.05859,1.074218 a 0.73847502,0.73847502 0 0 0 0.714844,0.761719 0.73847502,0.73847502 0 0 0 0.761718,-0.714844 c 0.01053,-0.331676 0.03019,-0.667307 0.05469,-1.005859 v -0.0078 l 0.0332,-0.388672 a 0.73854887,0.73854887 0 0 0 0,-0.0039 c 0.03196,-0.412903 0.115781,-0.897945 0.128906,-1.392578 0.01313,-0.494633 -0.03125,-1.130994 -0.580078,-1.550781 -0.274415,-0.209893 -0.584672,-0.29963 -0.929687,-0.304687 z m -38.71875,0.1875 a 0.73854887,0.73854887 0 0 0 -0.72461,0.601562 l -0.04687,0.246094 -0.05469,0.24414 -0.06445,0.257813 -0.08203,0.285156 c -0.532891,1.764652 -1.387293,3.511531 -1.929687,5.451172 a 0.73847502,0.73847502 0 0 0 0.511719,0.910156 0.73847502,0.73847502 0 0 0 0.910156,-0.513672 c 0.495104,-1.770529 1.346824,-3.511346 1.925781,-5.433593 a 0.73854887,0.73854887 0 0 0 0.002,-0.0098 l 0.08398,-0.296875 a 0.73854887,0.73854887 0 0 0 0.0059,-0.01953 l 0.0625,-0.246094 h -0.123047 a 0.73847502,0.73847502 0 0 0 0.160156,-0.160156 l 0.03516,-0.158203 a 0.73854887,0.73854887 0 0 0 0.0059,-0.02344 l -0.0332,0.173828 a 0.73847502,0.73847502 0 0 0 0.570312,-0.570312 0.73847502,0.73847502 0 0 0 -0.738281,-0.738281 z m 4.90625,0 a 0.73847502,0.73847502 0 0 0 -0.738282,0.738281 0.73847502,0.73847502 0 0 0 0.738282,0.738281 h 0.701171 c 0.0485,0.180595 0.09062,0.359748 0.146485,0.541016 a 0.73854887,0.73854887 0 0 0 0.002,0.0059 l 0.09766,0.3125 a 0.73854887,0.73854887 0 0 0 0.0039,0.01172 l 0.117188,0.345703 a 0.73854887,0.73854887 0 0 0 0.0039,0.01172 l 0.138672,0.390625 a 0.73854887,0.73854887 0 0 0 0.0039,0.0098 l 0.16211,0.4375 2.169922,6.013672 a 0.73847502,0.73847502 0 0 0 0.945312,0.44336 0.73847502,0.73847502 0 0 0 0.443359,-0.945313 L 49.275391,60.1875 a 0.73854887,0.73854887 0 0 0 -0.0039,-0.0059 l -0.160156,-0.435547 -0.134766,-0.378907 -0.113281,-0.333984 -0.0957,-0.304687 v 0.0059 c -0.101856,-0.330503 -0.190108,-0.67051 -0.273437,-1.017578 a 0.73854887,0.73854887 0 0 0 -0.71875,-0.566406 z m -1.810547,4.039062 a 0.73854887,0.73854887 0 0 0 -0.703125,0.517578 l -0.01367,0.04687 a 0.73847502,0.73847502 0 0 0 0.03711,0.396485 h -0.02148 l 0.03125,0.0957 a 0.73847502,0.73847502 0 0 0 0.02734,0.08789 l 1.882812,5.939453 h -2.433594 l 0.574219,-1.849609 A 0.73847502,0.73847502 0 0 0 43.59375,65.5 0.73847502,0.73847502 0 0 0 42.669922,65.986328 l -0.873047,2.806641 A 0.73854887,0.73854887 0 0 0 42.503906,69.75 h 4.445313 a 0.73847502,0.73847502 0 0 0 0.107422,-0.04492 0.73847502,0.73847502 0 0 0 0.115234,0.0098 0.73847502,0.73847502 0 0 0 0.279297,-0.173828 0.73847502,0.73847502 0 0 0 0.0332,-0.04102 0.73847502,0.73847502 0 0 0 0.195312,-0.46875 0.73847502,0.73847502 0 0 0 0.0078,-0.01953 0.73847502,0.73847502 0 0 0 -0.02344,-0.119141 0.73847502,0.73847502 0 0 0 -0.01172,-0.103516 L 45.40625,61.703125 a 0.73854887,0.73854887 0 0 0 -0.707031,-0.513672 z m 21.283203,0.78125 a 0.73847502,0.73847502 0 0 0 -0.753906,0.722656 0.73847502,0.73847502 0 0 0 0.722656,0.753907 c 0.921486,0.01874 1.829759,0.174867 2.644531,0.517578 a 0.73854887,0.73854887 0 0 0 0.002,0.002 c 0.612391,0.25631 1.176651,0.624214 1.644531,1.083984 0.430999,0.430755 0.781142,0.955143 1.033204,1.525391 a 0.73847502,0.73847502 0 0 0 0.972656,0.376953 0.73847502,0.73847502 0 0 0 0.376953,-0.974609 c -0.321294,-0.726875 -0.769627,-1.404137 -1.34375,-1.976563 a 0.73854887,0.73854887 0 0 0 -0.0039,-0.0039 C 70.668384,63.399643 69.947259,62.92968 69.167969,62.603516 68.141878,62.17192 67.050677,61.992425 65.982422,61.970703 Z m 25.191406,0.03711 c -1.008277,0.174556 -2.002613,0.513199 -2.904297,1.048829 -0.62901,0.372848 -1.203917,0.83889 -1.697265,1.384765 -0.545157,0.601783 -0.982987,1.290167 -1.304688,2.025391 a 0.73854887,0.73854887 0 0 0 -0.002,0.0078 l -0.07422,0.173828 a 0.73854887,0.73854887 0 0 0 -0.0059,0.01758 l -0.07031,0.175781 a 0.73854887,0.73854887 0 0 0 -0.0059,0.01563 l -0.0059,0.01367 a 0.73847502,0.73847502 0 0 0 0.441406,0.947265 0.73847502,0.73847502 0 0 0 0.947265,-0.441406 l 0.002,-0.0039 0.06055,-0.158203 0.06641,-0.15625 0.002,-0.002 0.002,-0.0059 c 0.260551,-0.593226 0.611706,-1.145238 1.041016,-1.61914 0.390555,-0.432325 0.850681,-0.806255 1.355468,-1.105469 a 0.73854887,0.73854887 0 0 0 0.002,0 C 89.7488,63.895283 90.57292,63.61054 91.425781,63.462891 a 0.73847502,0.73847502 0 0 0 0.601563,-0.853516 0.73847502,0.73847502 0 0 0 -0.853516,-0.601563 z m 4.708984,0.212891 a 0.73847502,0.73847502 0 0 0 -0.904296,0.519531 0.73847502,0.73847502 0 0 0 0.519531,0.90625 c 0.117026,0.03167 0.243112,0.07345 0.378906,0.119141 0.682666,0.234111 1.325848,0.574489 1.880859,1.013672 0.455156,0.359139 0.857671,0.788745 1.185547,1.267578 a 0.73854887,0.73854887 0 0 0 0,0.002 c 0.404559,0.589138 0.703205,1.258764 0.894532,1.962891 0.247849,0.912444 0.323779,1.88254 0.265629,2.849609 a 0.73847502,0.73847502 0 0 0 0.69336,0.78125 0.73847502,0.73847502 0 0 0 0.78125,-0.693359 c 0.0663,-1.103157 -0.0177,-2.231572 -0.31446,-3.324219 -0.23097,-0.850014 -0.59532,-1.672052 -1.10351,-2.412109 h 0.002 C 99.750102,64.611192 99.246693,64.073297 98.673828,63.621094 97.973662,63.06705 97.181396,62.651175 96.351562,62.367187 a 0.73854887,0.73854887 0 0 0 -0.0039,-0.002 C 96.204675,62.317127 96.0498,62.2659 95.882812,62.220703 Z m -22.326171,0.03711 a 0.73854887,0.73854887 0 0 0 -0.839844,0.732422 v 3.94336 a 0.73854887,0.73854887 0 0 0 0.833984,0.732422 l 0.25,-0.0332 0.214844,-0.02344 a 0.73847502,0.73847502 0 0 0 0.648437,-0.818359 0.73847502,0.73847502 0 0 0 -0.470703,-0.375 v -2.605469 c 0.06961,0.006 0.137034,0.0166 0.207032,0.02148 0.697745,0.05118 1.369955,0.03516 2.009765,0.03711 a 0.73847502,0.73847502 0 0 0 0.740235,-0.736329 0.73847502,0.73847502 0 0 0 -0.736329,-0.740234 c -0.664421,-0.002 -1.301886,0.01112 -1.90625,-0.0332 a 0.73854887,0.73854887 0 0 0 -0.002,0 c -0.313622,-0.02178 -0.630222,-0.05746 -0.949218,-0.101563 z m 10.380859,0.02148 -0.259766,0.03125 -0.0059,0.002 a 0.73847502,0.73847502 0 0 0 -0.660156,0.808594 0.73847502,0.73847502 0 0 0 0.27539,0.224609 v 2.769531 c -0.08204,-0.007 -0.161618,-0.01984 -0.24414,-0.02539 h -0.002 c -0.756835,-0.0535 -1.484343,-0.03367 -2.179688,-0.03711 a 0.73854887,0.73854887 0 0 0 -0.742187,0.738282 v 2.96289 a 0.73847502,0.73847502 0 0 0 0.738281,0.738281 0.73847502,0.73847502 0 0 0 0.738281,-0.738281 v -2.21289 c 0.453896,-2.21e-4 0.916826,-0.0068 1.34375,0.02344 a 0.73854887,0.73854887 0 0 0 0.002,0 c 0.326207,0.0219 0.655199,0.05731 0.986328,0.101563 a 0.73854887,0.73854887 0 0 0 0.835938,-0.732422 V 63.013672 A 0.73854887,0.73854887 0 0 0 83.9375,62.279297 Z m -27.671875,0.113281 a 0.73854887,0.73854887 0 0 0 -0.734375,0.820313 l 0.04883,0.435546 0.03906,0.417969 0.03125,0.41211 0.02539,0.419921 0.01758,0.435547 0.01367,0.462891 0.0059,0.498047 0.002,0.224609 a 0.73847502,0.73847502 0 0 0 0.740234,0.734375 0.73847502,0.73847502 0 0 0 0.736328,-0.740234 l -0.002,-0.228516 a 0.73854887,0.73854887 0 0 0 0,-0.0078 l -0.0059,-0.50586 a 0.73854887,0.73854887 0 0 0 0,-0.0098 l -0.01367,-0.472657 a 0.73854887,0.73854887 0 0 0 0,-0.01172 l -0.01953,-0.447266 a 0.73854887,0.73854887 0 0 0 0,-0.01172 L 57.125,64.384766 a 0.73854887,0.73854887 0 0 0 -0.002,-0.01172 l -0.0332,-0.427735 a 0.73854887,0.73854887 0 0 0 0,-0.01172 l -0.0059,-0.06445 h 3.101563 v 0.0625 c -2.27e-4,0.08156 -0.02061,0.228245 -0.02344,0.441406 a 0.73854887,0.73854887 0 0 0 1.208985,0.578125 c 0.244895,-0.203582 0.497707,-0.390552 0.757812,-0.554688 a 0.73847502,0.73847502 0 0 0 0.230469,-1.019531 0.73847502,0.73847502 0 0 0 -0.697266,-0.158203 v -0.08789 a 0.73854887,0.73854887 0 0 0 -0.738281,-0.738281 z m 36.833984,3 a 0.73847502,0.73847502 0 0 0 -0.755859,0.720703 0.73847502,0.73847502 0 0 0 0.720703,0.75586 l 0.166016,0.0039 0.144531,0.0098 0.136719,0.01758 0.132812,0.02539 0.125,0.0293 0.121094,0.03711 0.115234,0.04297 0.109375,0.04883 0.107422,0.05273 0.101563,0.06055 0.09766,0.06641 0.09375,0.07227 0.08984,0.07813 0.08789,0.08594 0.08398,0.0918 0.08008,0.09766 0.07813,0.107422 0.07227,0.113281 0.07031,0.123047 0.06641,0.128906 0.0625,0.136719 0.05664,0.146484 0.05469,0.152344 0.04883,0.16211 0.04297,0.169921 0.03906,0.177735 0.0332,0.185547 0.02734,0.193359 0.02148,0.201172 0.01563,0.207031 0.0098,0.216797 0.002,0.222656 -0.002,0.220703 -0.0098,0.214844 -0.01563,0.205078 -0.02148,0.199219 -0.02734,0.191406 -0.03125,0.183594 -0.0078,0.03125 a 0.73847502,0.73847502 0 0 0 0.566407,0.876953 0.73847502,0.73847502 0 0 0 0.876953,-0.564453 l 0.0098,-0.04492 a 0.73854887,0.73854887 0 0 0 0.0059,-0.02734 l 0.03711,-0.208984 a 0.73854887,0.73854887 0 0 0 0.0039,-0.02539 l 0.03125,-0.216796 a 0.73854887,0.73854887 0 0 0 0.002,-0.02539 l 0.02539,-0.222656 a 0.73854887,0.73854887 0 0 0 0.002,-0.02344 l 0.01563,-0.230469 a 0.73854887,0.73854887 0 0 0 0.002,-0.02148 l 0.0098,-0.236328 a 0.73854887,0.73854887 0 0 0 0.002,-0.02148 l 0.0039,-0.244141 a 0.73854887,0.73854887 0 0 0 0,-0.01953 l -0.0039,-0.246094 a 0.73854887,0.73854887 0 0 0 -0.002,-0.02148 l -0.0098,-0.238282 a 0.73854887,0.73854887 0 0 0 -0.002,-0.02344 l -0.01758,-0.230469 A 0.73854887,0.73854887 0 0 0 97,69.541016 l -0.02344,-0.226563 a 0.73854887,0.73854887 0 0 0 -0.0039,-0.02344 l -0.03125,-0.21875 a 0.73854887,0.73854887 0 0 0 -0.0039,-0.02539 l -0.03711,-0.212891 a 0.73854887,0.73854887 0 0 0 -0.0059,-0.02734 l -0.04297,-0.203125 a 0.73854887,0.73854887 0 0 0 -0.0078,-0.0293 l -0.05078,-0.197266 a 0.73854887,0.73854887 0 0 0 -0.0078,-0.02734 l -0.05664,-0.191406 a 0.73854887,0.73854887 0 0 0 -0.0098,-0.0293 l -0.06445,-0.183594 a 0.73854887,0.73854887 0 0 0 -0.01172,-0.03125 l -0.07031,-0.175781 a 0.73854887,0.73854887 0 0 0 -0.01172,-0.03125 l -0.07813,-0.169922 a 0.73854887,0.73854887 0 0 0 -0.01367,-0.03125 l -0.08398,-0.162109 a 0.73854887,0.73854887 0 0 0 -0.01758,-0.03125 l -0.08789,-0.154297 a 0.73854887,0.73854887 0 0 0 -0.01953,-0.0332 l -0.0957,-0.146484 a 0.73854887,0.73854887 0 0 0 -0.02148,-0.0332 l -0.101562,-0.138671 a 0.73854887,0.73854887 0 0 0 -0.02344,-0.03125 l -0.107422,-0.13086 a 0.73854887,0.73854887 0 0 0 -0.02734,-0.0332 l -0.111328,-0.123047 a 0.73854887,0.73854887 0 0 0 -0.03125,-0.03125 l -0.117187,-0.115234 a 0.73854887,0.73854887 0 0 0 -0.0332,-0.0293 l -0.123047,-0.107422 a 0.73854887,0.73854887 0 0 0 -0.03516,-0.02734 l -0.128907,-0.09961 a 0.73854887,0.73854887 0 0 0 -0.03516,-0.02539 l -0.136719,-0.0918 A 0.73854887,0.73854887 0 0 0 95.09375,65.9375 l -0.140625,-0.08398 a 0.73854887,0.73854887 0 0 0 -0.03906,-0.02148 l -0.146484,-0.07422 a 0.73854887,0.73854887 0 0 0 -0.03906,-0.01953 l -0.150391,-0.06641 a 0.73854887,0.73854887 0 0 0 -0.04102,-0.01563 l -0.15625,-0.05664 a 0.73854887,0.73854887 0 0 0 -0.04102,-0.01367 l -0.16211,-0.05078 a 0.73854887,0.73854887 0 0 0 -0.04102,-0.0098 l -0.166016,-0.04102 a 0.73854887,0.73854887 0 0 0 -0.04102,-0.0078 l -0.169921,-0.03125 a 0.73854887,0.73854887 0 0 0 -0.04102,-0.0059 l -0.175781,-0.02344 a 0.73854887,0.73854887 0 0 0 -0.03906,-0.0039 l -0.179687,-0.01367 a 0.73854887,0.73854887 0 0 0 -0.03906,-0.002 z m -28.568359,0.140625 -0.04297,0.002 a 0.73847502,0.73847502 0 0 0 -0.728515,0.748047 0.73847502,0.73847502 0 0 0 0.748046,0.728516 h 0.03125 l 0.177735,0.002 0.169922,0.01172 0.162109,0.01563 0.154297,0.02344 0.148437,0.0293 0.142579,0.03516 0.134765,0.04102 0.128906,0.04687 0.121094,0.05078 0.117188,0.05664 0.111328,0.06055 0.103515,0.06641 0.09961,0.07227 0.0957,0.07617 0.08984,0.08203 0.08398,0.08789 0.08203,0.09375 0.07617,0.09961 0.07227,0.105468 0.06836,0.111328 0.0625,0.119141 0.05859,0.125 0.05469,0.130859 0.05078,0.140625 0.04492,0.146485 0.03906,0.154297 0.0332,0.162109 0.02734,0.167969 0.02344,0.175781 0.01563,0.183594 0.0098,0.191406 0.0039,0.197266 -0.0039,0.222656 -0.01172,0.216797 -0.01953,0.207031 -0.02734,0.201172 -0.0332,0.191406 -0.03906,0.183594 -0.04687,0.173828 -0.05273,0.171875 c -0.144868,0.424723 -0.372227,0.798709 -0.664062,1.046875 l -0.09961,0.08203 -0.0957,0.07227 -0.09961,0.06641 -0.103516,0.0625 -0.103515,0.05469 -0.123047,0.05859 a 0.73847502,0.73847502 0 0 0 -0.351563,0.984375 0.73847502,0.73847502 0 0 0 0.982422,0.351563 l 0.138672,-0.06641 a 0.73854887,0.73854887 0 0 0 0.0332,-0.01563 l 0.138672,-0.07422 a 0.73854887,0.73854887 0 0 0 0.03125,-0.01758 l 0.134766,-0.08203 a 0.73854887,0.73854887 0 0 0 0.0293,-0.01953 l 0.130859,-0.08594 a 0.73854887,0.73854887 0 0 0 0.0293,-0.02148 l 0.126953,-0.0957 a 0.73854887,0.73854887 0 0 0 0.0293,-0.02148 l 0.121094,-0.101563 a 0.73854887,0.73854887 0 0 0 0.0078,-0.0059 c 0.552953,-0.470211 0.898463,-1.085599 1.107422,-1.701172 a 0.73854887,0.73854887 0 0 0 0.0039,-0.01563 l 0.0625,-0.199219 a 0.73854887,0.73854887 0 0 0 0.0098,-0.0332 l 0.05469,-0.207031 a 0.73854887,0.73854887 0 0 0 0.0078,-0.03125 l 0.04687,-0.214844 a 0.73854887,0.73854887 0 0 0 0.0059,-0.03125 l 0.03906,-0.222656 a 0.73854887,0.73854887 0 0 0 0.0039,-0.0293 l 0.03125,-0.230469 a 0.73854887,0.73854887 0 0 0 0.002,-0.02734 l 0.02148,-0.236328 a 0.73854887,0.73854887 0 0 0 0.002,-0.02734 l 0.01367,-0.244141 a 0.73854887,0.73854887 0 0 0 0.002,-0.02734 l 0.0039,-0.248046 a 0.73854887,0.73854887 0 0 0 0,-0.02539 l -0.0039,-0.222656 a 0.73854887,0.73854887 0 0 0 0,-0.02539 l -0.01172,-0.216797 a 0.73854887,0.73854887 0 0 0 -0.002,-0.02734 l -0.01953,-0.210937 a 0.73854887,0.73854887 0 0 0 -0.002,-0.02734 l -0.02539,-0.205078 a 0.73854887,0.73854887 0 0 0 -0.0039,-0.0293 l -0.0332,-0.197265 a 0.73854887,0.73854887 0 0 0 -0.0059,-0.03125 l -0.04102,-0.191407 a 0.73854887,0.73854887 0 0 0 -0.0078,-0.03125 l -0.04687,-0.185547 a 0.73854887,0.73854887 0 0 0 -0.0078,-0.03125 L 68.513672,68.25 a 0.73854887,0.73854887 0 0 0 -0.01172,-0.0332 l -0.06055,-0.171875 a 0.73854887,0.73854887 0 0 0 -0.01367,-0.03516 l -0.06836,-0.166016 a 0.73854887,0.73854887 0 0 0 -0.01367,-0.0332 l -0.07617,-0.160156 a 0.73854887,0.73854887 0 0 0 -0.01758,-0.0332 l -0.08203,-0.154296 a 0.73854887,0.73854887 0 0 0 -0.01953,-0.0332 L 68.0625,67.283203 a 0.73854887,0.73854887 0 0 0 -0.02344,-0.03516 l -0.0957,-0.138672 a 0.73854887,0.73854887 0 0 0 -0.02344,-0.0332 l -0.101563,-0.132813 a 0.73854887,0.73854887 0 0 0 -0.02734,-0.03125 l -0.109375,-0.126953 a 0.73854887,0.73854887 0 0 0 -0.02734,-0.03125 l -0.115235,-0.117187 a 0.73854887,0.73854887 0 0 0 -0.03125,-0.0293 l -0.123046,-0.111328 a 0.73854887,0.73854887 0 0 0 -0.03125,-0.0293 l -0.128907,-0.103516 a 0.73854887,0.73854887 0 0 0 -0.0332,-0.02539 l -0.134765,-0.09766 a 0.73854887,0.73854887 0 0 0 -0.03516,-0.02344 l -0.140625,-0.08984 a 0.73854887,0.73854887 0 0 0 -0.03711,-0.02148 l -0.146484,-0.08203 a 0.73854887,0.73854887 0 0 0 -0.03711,-0.01953 l -0.152344,-0.07422 a 0.73854887,0.73854887 0 0 0 -0.03711,-0.01563 L 66.3125,65.847656 a 0.73854887,0.73854887 0 0 0 -0.03711,-0.01563 l -0.166016,-0.05859 a 0.73854887,0.73854887 0 0 0 -0.03516,-0.01172 l -0.171875,-0.05273 a 0.73854887,0.73854887 0 0 0 -0.03516,-0.0098 l -0.177734,-0.04297 a 0.73854887,0.73854887 0 0 0 -0.0332,-0.0078 l -0.183594,-0.03711 a 0.73854887,0.73854887 0 0 0 -0.0332,-0.0059 L 65.25,65.578125 a 0.73854887,0.73854887 0 0 0 -0.0332,-0.0039 l -0.19336,-0.01953 a 0.73854887,0.73854887 0 0 0 -0.03125,-0.0039 l -0.201171,-0.01172 a 0.73854887,0.73854887 0 0 0 -0.0293,-0.002 l -0.205078,-0.0039 a 0.73854887,0.73854887 0 0 0 -0.02539,0 z m 26.419922,0.443359 -0.101563,0.06641 a 0.73854887,0.73854887 0 0 0 -0.03711,0.02539 l -0.132813,0.09961 a 0.73854887,0.73854887 0 0 0 -0.0332,0.02734 l -0.128906,0.105469 a 0.73854887,0.73854887 0 0 0 -0.03125,0.0293 l -0.121094,0.115234 a 0.73854887,0.73854887 0 0 0 -0.03125,0.0293 l -0.115234,0.123047 a 0.73854887,0.73854887 0 0 0 -0.02734,0.03125 l -0.109375,0.13086 a 0.73854887,0.73854887 0 0 0 -0.02539,0.03125 l -0.103516,0.138671 a 0.73854887,0.73854887 0 0 0 -0.02344,0.03125 l -0.09766,0.146485 a 0.73854887,0.73854887 0 0 0 -0.02148,0.03125 l -0.08984,0.154297 a 0.73854887,0.73854887 0 0 0 -0.01758,0.03125 l -0.08594,0.160156 a 0.73854887,0.73854887 0 0 0 -0.01563,0.0332 l -0.07813,0.166016 a 0.73854887,0.73854887 0 0 0 -0.01367,0.0332 l -0.07227,0.173828 a 0.73854887,0.73854887 0 0 0 -0.01172,0.03125 l -0.06641,0.181641 a 0.73854887,0.73854887 0 0 0 -0.0098,0.0293 l -0.05859,0.189454 a 0.73854887,0.73854887 0 0 0 -0.0078,0.0293 l -0.05273,0.195313 a 0.73854887,0.73854887 0 0 0 -0.0078,0.02734 l -0.04492,0.203125 a 0.73854887,0.73854887 0 0 0 -0.0059,0.02734 l -0.03711,0.208985 a 0.73854887,0.73854887 0 0 0 -0.0059,0.02539 l -0.03125,0.214844 a 0.73854887,0.73854887 0 0 0 -0.0039,0.02734 l -0.02344,0.220703 a 0.73854887,0.73854887 0 0 0 -0.002,0.02539 l -0.01953,0.226562 a 0.73854887,0.73854887 0 0 0 0,0.02539 l -0.01172,0.232422 a 0.73854887,0.73854887 0 0 0 0,0.02344 l -0.0039,0.240235 a 0.73854887,0.73854887 0 0 0 0,0.02148 l 0.0039,0.244141 a 0.73854887,0.73854887 0 0 0 0,0.02148 l 0.01172,0.236328 a 0.73854887,0.73854887 0 0 0 0,0.02344 l 0.01758,0.230468 a 0.73854887,0.73854887 0 0 0 0.0039,0.02539 l 0.02344,0.222656 a 0.73854887,0.73854887 0 0 0 0.0039,0.02539 l 0.03125,0.21875 a 0.73854887,0.73854887 0 0 0 0.0039,0.02539 l 0.03906,0.210938 a 0.73854887,0.73854887 0 0 0 0.0059,0.02734 l 0.04492,0.203125 a 0.73854887,0.73854887 0 0 0 0.0078,0.0293 l 0.05078,0.197265 a 0.73854887,0.73854887 0 0 0 0.0078,0.0293 l 0.05859,0.189453 a 0.73854887,0.73854887 0 0 0 0.01172,0.0293 l 0.06445,0.183594 a 0.73854887,0.73854887 0 0 0 0.01172,0.03125 l 0.07031,0.175781 a 0.73854887,0.73854887 0 0 0 0.01367,0.03125 l 0.07813,0.169922 a 0.73854887,0.73854887 0 0 0 0.01563,0.03125 l 0.08594,0.162109 a 0.73854887,0.73854887 0 0 0 0.01758,0.0332 l 0.08984,0.154297 a 0.73854887,0.73854887 0 0 0 0.01953,0.03125 l 0.09766,0.148438 a 0.73854887,0.73854887 0 0 0 0.02344,0.03125 l 0.101562,0.140625 a 0.73854887,0.73854887 0 0 0 0.02539,0.03125 l 0.109375,0.132812 a 0.73854887,0.73854887 0 0 0 0.02734,0.03125 l 0.115235,0.123047 a 0.73854887,0.73854887 0 0 0 0.0293,0.03125 l 0.121093,0.115235 a 0.73854887,0.73854887 0 0 0 0.03125,0.0293 l 0.126954,0.107422 a 0.73854887,0.73854887 0 0 0 0.0332,0.0293 l 0.132812,0.09961 a 0.73854887,0.73854887 0 0 0 0.03711,0.02539 l 0.136718,0.0918 a 0.73854887,0.73854887 0 0 0 0.03711,0.02344 l 0.144531,0.08398 a 0.73854887,0.73854887 0 0 0 0.03906,0.02148 l 0.148438,0.07422 a 0.73854887,0.73854887 0 0 0 0.04102,0.01953 l 0.154296,0.06641 a 0.73854887,0.73854887 0 0 0 0.03906,0.01563 l 0.160156,0.05859 a 0.73854887,0.73854887 0 0 0 0.04102,0.01367 l 0.164062,0.04883 a 0.73854887,0.73854887 0 0 0 0.04102,0.01172 l 0.169922,0.03906 a 0.73854887,0.73854887 0 0 0 0.04102,0.0098 l 0.173829,0.03125 a 0.73854887,0.73854887 0 0 0 0.03906,0.0059 l 0.181641,0.02344 a 0.73854887,0.73854887 0 0 0 0.03711,0.0039 l 0.185547,0.01367 a 0.73854887,0.73854887 0 0 0 0.03711,0.002 l 0.191407,0.0039 a 0.73854887,0.73854887 0 0 0 0.03516,0 l 0.121094,-0.002 A 0.73847502,0.73847502 0 0 0 93.917969,74.470703 0.73847502,0.73847502 0 0 0 93.162109,73.75 l -0.103515,0.002 -0.154297,-0.0039 -0.148438,-0.01172 -0.140625,-0.01758 -0.136718,-0.02344 -0.13086,-0.03125 -0.125,-0.03711 -0.11914,-0.04492 -0.113282,-0.04883 -0.109375,-0.05469 -0.105468,-0.0625 -0.101563,-0.06641 -0.0957,-0.07422 -0.09375,-0.07813 -0.08984,-0.08789 -0.08594,-0.0918 -0.08203,-0.09961 -0.08008,-0.107422 -0.07422,-0.115235 L 91,72.574219 l -0.06836,-0.13086 -0.0625,-0.136718 -0.05859,-0.146485 -0.05469,-0.152344 -0.04883,-0.160156 -0.04492,-0.169922 -0.03906,-0.175781 -0.0332,-0.183594 -0.0293,-0.191406 -0.02148,-0.199219 -0.01563,-0.207031 -0.0098,-0.212891 -0.0039,-0.220703 0.0039,-0.21875 0.0098,-0.210937 0.01563,-0.203125 0.02148,-0.197266 0.02734,-0.189453 0.03516,-0.181641 0.03906,-0.173828 0.04297,-0.166015 0.05078,-0.158203 0.05273,-0.150391 0.06055,-0.142578 0.0625,-0.134766 0.06641,-0.128906 0.07227,-0.119141 0.07617,-0.113281 0.07813,-0.105469 0.08203,-0.09766 0.08789,-0.0918 0.08984,-0.08398 0.09375,-0.08008 0.09766,-0.07227 0.08203,-0.05273 a 0.73847502,0.73847502 0 0 0 0.214844,-1.023438 0.73847502,0.73847502 0 0 0 -1.021484,-0.214844 z m -52.78711,1.933594 a 0.73847502,0.73847502 0 0 0 -0.945312,0.445313 l -2.173828,6.050781 a 0.73854887,0.73854887 0 0 0 0,0.002 c -0.250893,0.702529 -0.488052,1.390959 -0.757813,2.048828 l -0.109375,0.257813 -0.113281,0.246093 -0.123047,0.251954 a 0.73854887,0.73854887 0 0 0 0.664063,1.0625 h 0.808593 a 0.73847502,0.73847502 0 0 0 0.740235,-0.738282 0.73847502,0.73847502 0 0 0 -0.44336,-0.671875 c 0.264243,-0.659432 0.495928,-1.318605 0.72461,-1.958984 v -0.002 l 2.173828,-6.050781 a 0.73847502,0.73847502 0 0 0 -0.445313,-0.94336 z M 76.412109,68 a 0.73847502,0.73847502 0 0 0 -0.738281,0.738281 v 5.279297 a 0.73854887,0.73854887 0 0 0 0,0.0098 l 0.0039,0.292968 a 0.73854887,0.73854887 0 0 0 0,0.02148 l 0.01172,0.27539 a 0.73854887,0.73854887 0 0 0 0.002,0.02539 l 0.01953,0.257813 a 0.73854887,0.73854887 0 0 0 0.002,0.01367 c 0.05432,0.549206 0.178927,1.150307 0.505859,1.710938 0.277166,0.479144 0.660719,0.849267 1.064453,1.138672 a 0.73854887,0.73854887 0 0 0 0.0039,0.0039 c 0.357554,0.251632 0.746143,0.429617 1.132813,0.556641 a 0.73854887,0.73854887 0 0 0 0.01367,0.0039 l 0.201172,0.0625 a 0.73854887,0.73854887 0 0 0 0.03125,0.0078 l 0.208984,0.05469 a 0.73854887,0.73854887 0 0 0 0.0293,0.0059 l 0.01953,0.0059 a 0.73847502,0.73847502 0 0 0 0.878906,-0.566407 0.73847502,0.73847502 0 0 0 -0.566406,-0.878906 h -0.0059 l -0.181641,-0.04687 -0.167969,-0.05078 -0.0059,-0.002 c -0.273036,-0.09024 -0.524481,-0.210285 -0.736328,-0.359375 -0.273826,-0.197093 -0.499597,-0.426653 -0.642578,-0.673828 a 0.73854887,0.73854887 0 0 0 -0.002,-0.0039 C 77.320827,75.586476 77.226114,75.1994 77.183594,74.769531 v 0.01367 l -0.01953,-0.244141 -0.0098,-0.25 -0.0039,-0.27539 V 68.738281 A 0.73847502,0.73847502 0 0 0 76.412109,68 Z m -14.964843,0.09961 A 0.73847502,0.73847502 0 0 0 60.5,68.541016 l -0.0059,0.01563 a 0.73854887,0.73854887 0 0 0 -0.0098,0.0332 l -0.05664,0.179687 a 0.73854887,0.73854887 0 0 0 -0.0098,0.0332 l -0.04883,0.183594 a 0.73854887,0.73854887 0 0 0 -0.0078,0.0332 l -0.04102,0.1875 a 0.73854887,0.73854887 0 0 0 -0.0059,0.03516 l -0.03125,0.191407 a 0.73854887,0.73854887 0 0 0 -0.0039,0.0332 l -0.02344,0.195312 a 0.73854887,0.73854887 0 0 0 -0.0039,0.0332 l -0.01367,0.197266 a 0.73854887,0.73854887 0 0 0 -0.002,0.03516 l -0.0039,0.201172 a 0.73854887,0.73854887 0 0 0 0,0.0332 l 0.0039,0.207032 a 0.73854887,0.73854887 0 0 0 0.002,0.0332 l 0.01367,0.203125 a 0.73854887,0.73854887 0 0 0 0.0039,0.0332 l 0.02148,0.199219 a 0.73854887,0.73854887 0 0 0 0.0059,0.0332 l 0.03125,0.195312 a 0.73854887,0.73854887 0 0 0 0.0059,0.0332 l 0.03906,0.191407 a 0.73854887,0.73854887 0 0 0 0.0078,0.03516 l 0.04883,0.1875 a 0.73854887,0.73854887 0 0 0 0.0098,0.0332 l 0.05469,0.181641 a 0.73854887,0.73854887 0 0 0 0.01172,0.0332 l 0.06445,0.179687 a 0.73854887,0.73854887 0 0 0 0.01172,0.03125 l 0.07227,0.173828 a 0.73854887,0.73854887 0 0 0 0.01563,0.0332 l 0.07813,0.167969 a 0.73854887,0.73854887 0 0 0 0.01758,0.03125 l 0.08594,0.164063 a 0.73854887,0.73854887 0 0 0 0.01758,0.03125 l 0.09375,0.158203 a 0.73854887,0.73854887 0 0 0 0.01953,0.0293 l 0.101562,0.152343 a 0.73854887,0.73854887 0 0 0 0.02148,0.03125 l 0.107422,0.144532 a 0.73854887,0.73854887 0 0 0 0.02148,0.0293 l 0.115234,0.140625 a 0.73854887,0.73854887 0 0 0 0.02344,0.02734 l 0.121094,0.134766 a 0.73854887,0.73854887 0 0 0 0.02539,0.02539 l 0.126953,0.128906 a 0.73854887,0.73854887 0 0 0 0.02734,0.02539 l 0.132813,0.119141 a 0.73854887,0.73854887 0 0 0 0.0293,0.02539 l 0.138671,0.113281 a 0.73854887,0.73854887 0 0 0 0.0293,0.02344 l 0.144532,0.105469 a 0.73854887,0.73854887 0 0 0 0.03125,0.02148 l 0.15039,0.09961 a 0.73854887,0.73854887 0 0 0 0.03125,0.01953 l 0.15625,0.0918 a 0.73854887,0.73854887 0 0 0 0.0332,0.01953 l 0.160157,0.08398 a 0.73854887,0.73854887 0 0 0 0.03516,0.01563 l 0.164062,0.07617 a 0.73854887,0.73854887 0 0 0 0.03516,0.01563 L 63.101562,74.5 a 0.73854887,0.73854887 0 0 0 0.03516,0.01172 l 0.175781,0.06055 a 0.73854887,0.73854887 0 0 0 0.03516,0.0098 l 0.179688,0.05078 a 0.73854887,0.73854887 0 0 0 0.03711,0.0098 l 0.183594,0.04297 a 0.73854887,0.73854887 0 0 0 0.03516,0.0078 l 0.1875,0.0332 a 0.73854887,0.73854887 0 0 0 0.03711,0.0039 l 0.191407,0.02539 a 0.73854887,0.73854887 0 0 0 0.03711,0.0039 l 0.193359,0.01367 a 0.73854887,0.73854887 0 0 0 0.03711,0.002 l 0.197265,0.0039 a 0.73847502,0.73847502 0 0 0 0.757813,-0.71875 0.73847502,0.73847502 0 0 0 -0.720703,-0.757813 l -0.179688,-0.0039 -0.158203,-0.01172 -0.154297,-0.01953 -0.148437,-0.02539 -0.148438,-0.03516 -0.142578,-0.03906 -0.138672,-0.04883 -0.134765,-0.05273 -0.13086,-0.06055 -0.126953,-0.06641 -0.123047,-0.07227 -0.11914,-0.07813 -0.115235,-0.08594 -0.109375,-0.08984 -0.105468,-0.0957 -0.101563,-0.09961 -0.0957,-0.107422 -0.0918,-0.111328 -0.08594,-0.117188 -0.08203,-0.123047 -0.07617,-0.126953 -0.07031,-0.130859 -0.06445,-0.136719 -0.05859,-0.140625 -0.05078,-0.144531 -0.04687,-0.150391 -0.03906,-0.154297 -0.0332,-0.158203 -0.02539,-0.162109 -0.01953,-0.166016 -0.01172,-0.169922 -0.0039,-0.171875 0.0039,-0.166015 0.01172,-0.164063 0.01953,-0.160156 0.02539,-0.158203 0.0332,-0.152344 0.03906,-0.152344 0.04687,-0.146484 h -0.002 a 0.73847502,0.73847502 0 0 0 -0.439453,-0.947266 z m 11.222656,1.777344 a 0.73847502,0.73847502 0 0 0 -0.771485,0.705078 c -0.01317,0.285801 -0.04054,0.572686 -0.08008,0.859375 -0.115787,0.832347 -0.346462,1.640747 -0.71875,2.363281 a 0.73854887,0.73854887 0 0 0 -0.002,0 c -0.220882,0.42936 -0.49144,0.830038 -0.808594,1.185547 a 0.73854887,0.73854887 0 0 0 -0.002,0.002 c -0.378324,0.426397 -0.830971,0.791211 -1.330078,1.074219 a 0.73854887,0.73854887 0 0 0 -0.002,0 c -0.789383,0.449064 -1.698915,0.706667 -2.626953,0.779297 a 0.73847502,0.73847502 0 0 0 -0.679688,0.792969 0.73847502,0.73847502 0 0 0 0.794922,0.679687 c 1.121686,-0.08778 2.240043,-0.398651 3.242188,-0.96875 v 0.002 c 0.637113,-0.361261 1.216036,-0.826241 1.705078,-1.376953 0.405018,-0.453999 0.746289,-0.959206 1.021484,-1.49414 0.462974,-0.898538 0.734436,-1.868037 0.869141,-2.837891 a 0.73854887,0.73854887 0 0 0 0.002,0 c 0.04521,-0.327815 0.0764,-0.658291 0.0918,-0.992187 a 0.73847502,0.73847502 0 0 0 -0.705078,-0.773438 z m -20.681641,0.05859 a 0.73847502,0.73847502 0 0 0 -0.419922,0.955078 c 0.621414,1.598784 1.157992,3.254741 1.775391,4.908203 a 0.73854887,0.73854887 0 0 0 0,0.002 c 0.123928,0.329844 0.27287,0.664551 0.40625,0.998047 h -3.822266 c -0.03075,-0.167425 -0.05715,-0.333448 -0.0918,-0.501953 v -0.002 c -0.104826,-0.51478 -0.235268,-1.020324 -0.382812,-1.517578 a 0.73854887,0.73854887 0 0 0 -0.0039,-0.01563 l -0.621094,-1.953125 a 0.73847502,0.73847502 0 0 0 -0.927734,-0.480469 0.73847502,0.73847502 0 0 0 -0.480469,0.927734 l 0.621094,1.955078 c 0.135606,0.458257 0.253633,0.918846 0.347656,1.38086 0.07192,0.349607 0.134995,0.705549 0.195312,1.066406 a 0.73854887,0.73854887 0 0 0 0.728516,0.617188 h 5.533203 a 0.73847502,0.73847502 0 0 0 0.234375,-0.09766 0.73847502,0.73847502 0 0 0 0.07617,0.0293 0.73847502,0.73847502 0 0 0 0.144531,-0.11914 0.73847502,0.73847502 0 0 0 0.08594,-0.07422 0.73847502,0.73847502 0 0 0 0.1875,-0.453125 0.73847502,0.73847502 0 0 0 0.0098,-0.02344 0.73847502,0.73847502 0 0 0 -0.06445,-0.298828 0.73847502,0.73847502 0 0 0 -0.002,-0.0098 c -0.287149,-0.62293 -0.539958,-1.277134 -0.791016,-1.945313 v -0.002 c -0.601961,-1.612274 -1.141538,-3.274895 -1.783203,-4.925781 a 0.73847502,0.73847502 0 0 0 -0.955078,-0.419922 z m 4.466797,0.273437 a 0.73847502,0.73847502 0 0 0 -0.740234,0.738282 v 7.384765 a 0.73847502,0.73847502 0 0 0 0.740234,0.738281 0.73847502,0.73847502 0 0 0 0.738281,-0.738281 v -7.384765 a 0.73847502,0.73847502 0 0 0 -0.738281,-0.738282 z m 28.783203,0.546875 a 0.73847502,0.73847502 0 0 0 -0.65039,0.816407 c 0.12183,1.084213 0.421516,2.164977 0.947265,3.154296 0.34403,0.648617 0.782699,1.248849 1.306641,1.771485 0.571475,0.571371 1.236191,1.04064 1.953125,1.396484 1.036122,0.515276 2.161154,0.79097 3.28125,0.884766 a 0.73847502,0.73847502 0 0 0 0.609375,-0.310547 0.73847502,0.73847502 0 0 0 0.349609,0.349609 c 1.098724,3.76e-4 2.214078,-0.160096 3.275391,-0.537109 0.83386,-0.295634 1.625958,-0.724528 2.324219,-1.287109 0.541059,-0.4354 1.022479,-0.946037 1.423824,-1.515625 a 0.73847502,0.73847502 0 0 0 -0.177731,-1.029297 0.73847502,0.73847502 0 0 0 -1.029297,0.179687 c -0.32032,0.454595 -0.707649,0.86485 -1.142578,1.214844 -0.559452,0.450745 -1.205337,0.803468 -1.892578,1.046875 a 0.73854887,0.73854887 0 0 0 -0.002,0 c -0.877247,0.311626 -1.824763,0.451499 -2.779297,0.451172 A 0.73847502,0.73847502 0 0 0 92.625,77.511719 0.73847502,0.73847502 0 0 0 92.201172,77.306641 c -0.962889,-0.08063 -1.907676,-0.316449 -2.748047,-0.734375 -0.580301,-0.287772 -1.115341,-0.666 -1.568359,-1.119141 -0.415021,-0.413986 -0.767742,-0.895388 -1.044922,-1.417969 a 0.73854887,0.73854887 0 0 0 0,-0.002 C 86.41475,73.233291 86.158597,72.330979 86.054687,71.40625 a 0.73847502,0.73847502 0 0 0 -0.816406,-0.650391 z m -43.871094,1.484375 a 0.73854887,0.73854887 0 0 0 -0.71289,0.548828 c -0.22475,0.847795 -0.574316,1.717839 -0.841797,2.671875 a 0.73854887,0.73854887 0 0 0 -0.002,0.0078 l -0.08594,0.318359 a 0.73854887,0.73854887 0 0 0 -0.0039,0.01563 l -0.07617,0.310547 a 0.73854887,0.73854887 0 0 0 -0.0039,0.01758 l -0.06641,0.306641 a 0.73854887,0.73854887 0 0 0 -0.0039,0.01953 l -0.05859,0.306641 a 0.73854887,0.73854887 0 0 0 -0.002,0.01758 l -0.0039,0.01758 h 0.339844 a 0.73847502,0.73847502 0 0 0 -0.365234,0.152344 l -0.02148,0.128906 0.01953,-0.128906 a 0.73847502,0.73847502 0 0 0 -0.371094,0.585937 0.73847502,0.73847502 0 0 0 0.738281,0.738282 h 0.292969 a 0.73854887,0.73854887 0 0 0 0.730469,-0.632813 l 0.04492,-0.3125 0.05078,-0.296875 0.05469,-0.291016 0.0625,-0.287109 0.07227,-0.292969 0.08008,-0.302734 0.002,-0.0059 c 0.189764,-0.67552 0.444531,-1.397547 0.671875,-2.136719 h 1.824219 a 0.73847502,0.73847502 0 0 0 0.738281,-0.738281 0.73847502,0.73847502 0 0 0 -0.738281,-0.738282 z m 42.316407,0.982422 c -0.304196,0.159364 -0.602775,0.270848 -0.88086,0.310547 a 0.73854887,0.73854887 0 0 0 -0.002,0.002 c -0.179642,0.02636 -0.369355,0.03223 -0.5625,0.02344 l -0.109375,-0.0078 -0.105469,-0.01563 -0.09375,-0.01953 -0.0957,-0.02734 c -0.06295,-0.02134 -0.115819,-0.04407 -0.148437,-0.06445 a 0.73847502,0.73847502 0 0 0 -1.017578,0.234375 0.73847502,0.73847502 0 0 0 0.234375,1.017578 c 0.16834,0.105214 0.337143,0.174328 0.49414,0.22461 a 0.73854887,0.73854887 0 0 0 0.02734,0.0078 l 0.132813,0.03711 a 0.73854887,0.73854887 0 0 0 0.04883,0.01172 l 0.142578,0.0293 a 0.73854887,0.73854887 0 0 0 0.04492,0.0078 l 0.15039,0.02148 a 0.73854887,0.73854887 0 0 0 0.04297,0.0039 l 0.158203,0.01367 a 0.73854887,0.73854887 0 0 0 0.02734,0.002 c 0.274355,0.0125 0.556312,0.0023 0.839844,-0.03906 0.138503,-0.01977 0.239209,-0.09238 0.36914,-0.126953 l 0.203125,2.046875 c -0.08609,0.02157 -0.174177,0.04986 -0.259765,0.06836 a 0.73847502,0.73847502 0 0 0 -0.564453,0.876953 0.73847502,0.73847502 0 0 0 0.876953,0.566406 c 0.330488,-0.07145 0.651844,-0.159526 0.96289,-0.255859 a 0.73854887,0.73854887 0 0 0 0.515625,-0.777344 l -0.355468,-3.589844 a 0.73854887,0.73854887 0 0 0 -1.076172,-0.582031 z m -23.091797,2.013672 a 0.73854887,0.73854887 0 0 0 -0.429688,0.669922 c -2.37e-4,0.206857 3.22e-4,0.420728 0.0098,0.640625 a 0.73854887,0.73854887 0 0 0 0,0.0098 l 0.01367,0.242187 c 0.0058,1.126263 -0.02182,2.278933 0.04102,3.455078 a 0.73854887,0.73854887 0 0 0 0.002,0.0059 l 0.02539,0.416015 a 0.73854887,0.73854887 0 0 0 0,0.01367 l 0.03125,0.382813 h -3.076172 a 0.73847502,0.73847502 0 0 0 -0.738281,0.740234 0.73847502,0.73847502 0 0 0 0.738281,0.738281 h 3.904297 a 0.73847502,0.73847502 0 0 0 0.04492,-0.01953 0.73847502,0.73847502 0 0 0 0.04687,0.01367 0.73847502,0.73847502 0 0 0 0.394531,-0.195313 0.73847502,0.73847502 0 0 0 0.04492,-0.04102 0.73847502,0.73847502 0 0 0 0.191406,-0.458985 0.73847502,0.73847502 0 0 0 0.01563,-0.03711 0.73847502,0.73847502 0 0 0 -0.0098,-0.04687 0.73847502,0.73847502 0 0 0 0.0039,-0.04687 l -0.04883,-0.376953 -0.03906,-0.375 -0.03125,-0.388672 -0.02539,-0.402344 v -0.0059 c -0.04811,-0.90513 -0.03232,-1.840795 -0.03125,-2.78125 0.02234,0.01258 0.03977,0.02874 0.0625,0.04102 a 0.73847502,0.73847502 0 0 0 1,-0.298828 0.73847502,0.73847502 0 0 0 -0.298828,-1.001953 c -0.148242,-0.08004 -0.297386,-0.1778 -0.447266,-0.289062 h -0.002 c -0.197792,-0.147235 -0.397268,-0.316377 -0.605469,-0.494141 a 0.73854887,0.73854887 0 0 0 -0.787109,-0.109375 z"
       id="text2" />
    <path
       style="opacity:0.902511;fill:none;fill-opacity:1;stroke:#dc6060;stroke-width:2.10079;stroke-linecap:round;stroke-linejoin:round;stroke-miterlimit:4;stroke-dasharray:none;stroke-dashoffset:0;stroke-opacity:1;paint-order:fill markers stroke"
       d="m 66.283253,59.266662 5.192478,0 0.01672,3.263198"
       id="path2"
       sodipodi:nodetypes="ccc" />
  </g>
</svg>
